# AST/ASF file generated using VICON BodyLanguage
# -----------------------------------------------
:version 1.10
:name VICON
:units
  mass 1.0
  length 0.1
  angle deg
:documentation
   .ast/.asf automatically generated from VICON data using
   VICON BodyBuilder and BodyLanguage model FULLBODY5.MOD
:root
   order TX TY TZ RZ RY RX
   axis XYZ
   position 0 0 0  
   orientation 0 -0 0 
:bonedata
  begin
     id 1 
     name lhipjoint
     direction 0.969109 -0.218487 0.11442 
     length 0.544217 
     axis 0 -0 0  XYZ
  end
  begin
     id 2 
     name lfemur
     direction 0.173648 -0.984808 0  
     length 1.81499  
     axis 0 -0 10  XYZ
    dof rx ry rz
    limits (-180.0 180.0)
           (-180.0 180.0)
           (-180.0 180.0)
  end
  begin
     id 3 
     name ltibia
     direction 0.173515 -0.984831 0   
     length 1.55296   
     axis 0 -0 10   XYZ
    dof rx ry rz
    limits (-180.0 180.0)
           (-180.0 180.0)
           (-180.0 180.0)
  end
  begin
     id 4 
     name lfoot
     direction 7.36097e-012 -0.333012 0.942922   
     length 0.509062   
     axis -90 -1.73656e-015 10   XYZ
    dof rx ry rz
    limits (-180.0 180.0)
           (-180.0 180.0)
           (-180.0 180.0)
  end
  begin
     id 5 
     name ltoes
     direction 7.7847e-012 -4.42403e-011 1   
     length 0.249732   
     axis -90 -1.73656e-015 10   XYZ
    dof rx ry rz
    limits (-180.0 180.0)
           (-180.0 180.0)
           (-180.0 180.0)
  end
  begin
     id 6 
     name rhipjoint
     direction -0.966745 -0.226554 0.118645   
     length 0.524838  
     axis 0 -0 0  XYZ 
  end
  begin
     id 7 
     name rfemur
     direction -0.173648 -0.984808 0   
     length 1.84625   
     axis 0 -0 -10   XYZ
    dof rx ry rz
    limits (-180.0 180.0)
           (-180.0 180.0)
           (-180.0 180.0)
  end
  begin
     id 8 
     name rtibia
     direction -0.173714 -0.984796 0   
     length 1.577   
     axis 0 -0 -10   XYZ
    dof rx ry rz
    limits (-180.0 180.0)
           (-180.0 180.0)
           (-180.0 180.0)
 end
 begin
     id 9 
     name rfoot
     direction -0.0183819 -0.0406144 0.999006   
     length 0.490111  
     axis -90 1.73656e-015 -10   XYZ
    dof rx ry rz
    limits (-180.0 180.0)
           (-180.0 180.0)
           (-180.0 180.0)
  end
  begin
     id 10 
     name rtoes
     direction -7.79087e-012 -4.42375e-011 1   
     length 0.245053   
     axis -90 1.73656e-015 -10   XYZ
    dof rx ry rz
    limits (-180.0 180.0)
           (-180.0 180.0)
           (-180.0 180.0)
  end
  begin
     id 11 
     name lowerback
     direction -0.0664844 0.980601 0.184393   
     length 0.458979   
     axis 0 -0 0   XYZ
    dof rx ry rz
    limits (-180.0 180.0)
           (-180.0 180.0)
           (-180.0 180.0)
  end
  begin
     id 12 
     name upperback
     direction 0.0135995 0.999573 0.02588   
     length 0.463983   
     axis 0 -0 0   XYZ
    dof rx ry rz
    limits (-180.0 180.0)
           (-180.0 180.0)
           (-180.0 180.0)
  end
  begin
     id 13 
     name thorax
     direction 0.0468402 0.997311 -0.0563691   
     length 0.482746   
     axis 0 -0 0   XYZ
    dof rx ry rz
    limits (-180.0 180.0)
           (-180.0 180.0)
           (-180.0 180.0)
  end
  begin
     id 14 
     name lowerneck
     direction -0.00174311 0.988586 -0.150647   
     length 0.364383   
     axis 0 -0 0   XYZ
    dof rx ry rz
    limits (-180.0 180.0)
           (-180.0 180.0)
           (-180.0 180.0)
  end
  begin
     id 15 
     name upperneck
     direction -0.02653 0.999379 -0.0231908   
     length 0.361006   
     axis 0 -0 0   XYZ
    dof rx ry rz
    limits (-180.0 180.0)
           (-180.0 180.0)
           (-180.0 180.0)
  end
  begin
     id 16
     name head
     direction -0.00819207 0.999941 0.00714285  
     length 0.378714  
     axis 0 -0 0   XYZ
    dof rx ry rz
    limits (-180.0 180.0)
           (-180.0 180.0)
           (-180.0 180.0)
  end
  begin
     id 17 
     name lshoulderjoint
     direction 0.981627 -0.190809 0  
     length 0.612969  
     axis 0 -0 -11   XYZ
    dof rx ry rz
    limits (-180.0 180.0)
           (-180.0 180.0)
           (-180.0 180.0)
  end
  begin
     id 18 
     name lhumerus
     direction 0.48481 -0.87462 -9.72962e-027   
     length 1.19637   
     axis -180 5.14477e-009 -151   XYZ
    dof rx ry rz
    limits (-180.0 180.0)
           (-180.0 180.0)
           (-180.0 180.0)
  end
  begin
     id 19
     name lradius
     direction 0.48481 -0.87462 -2.35761e-026   
     length 0.637735   
     axis -180 5.14477e-009 -151   XYZ
    dof rx ry rz
    limits (-180.0 180.0)
           (-180.0 180.0)
           (-180.0 180.0)
  end
  begin
     id 20
     name lwrist
     direction 0.48481 -0.87462 -5.51856e-026   
     length 0.318868   
     axis -180 5.14477e-009 -151   XYZ
    dof rx ry rz
    limits (-180.0 180.0)
           (-180.0 180.0)
           (-180.0 180.0)
  end
  begin
     id 21 
     name lhand
     direction 0.477747 -0.861928 -0.169816   
     length 0.29526   
     axis -180 5.14477e-009 -151   XYZ
    dof rx ry rz
    limits (-180.0 180.0)
           (-180.0 180.0)
           (-180.0 180.0)
  end
  begin
     id 22 
     name rshoulderjoint
     direction -0.981627 -0.190809 0   
     length 0.572347  
     axis 0 -0 11   XYZ 
    dof rx ry rz
    limits (-180.0 180.0)
           (-180.0 180.0)
           (-180.0 180.0)
  end
  begin
     id 23 
     name rhumerus
     direction -0.48481 -0.87462 1.64836e-026  
     length 1.28846   
     axis 180 5.14477e-009 151   XYZ
    dof rx ry rz
    limits (-180.0 180.0)
           (-180.0 180.0)
           (-180.0 180.0)
  end
  begin
     id 24 
     name rradius
     direction -0.48481 -0.87462 2.86827e-026   
     length 0.62107   
     axis 180 5.14477e-009 151   XYZ
    dof rx ry rz
    limits (-180.0 180.0)
           (-180.0 180.0)
           (-180.0 180.0)
  end
  begin
     id 25 
     name rwrist
     direction -0.48481 -0.87462 5.20942e-026   
     length 0.310535   
     axis 180 5.14477e-009 151   XYZ
    dof rx ry rz
    limits (-180.0 180.0)
           (-180.0 180.0)
           (-180.0 180.0)
  end
  begin
     id 26
     name rhand
     direction -0.477664 -0.861515 -0.172133   
     length 0.291321   
     axis 180 5.14477e-009 151   XYZ
    dof rx ry rz
    limits (-180.0 180.0)
           (-180.0 180.0)
           (-180.0 180.0)
  end
:hierarchy
  begin
    root lhipjoint rhipjoint lowerback 
    lhipjoint lfemur
    lfemur ltibia
    ltibia lfoot
    lfoot ltoes
    rhipjoint rfemur
    rfemur rtibia
    rtibia rfoot
    rfoot rtoes
    lowerback upperback
    upperback thorax
    thorax lowerneck lshoulderjoint rshoulderjoint
    lowerneck upperneck
    upperneck head
    lshoulderjoint lhumerus
    lhumerus lradius
    lradius lwrist
    lwrist lhand
    rshoulderjoint rhumerus
    rhumerus rradius
    rradius rwrist
    rwrist rhand
  end

:FULLY-SPECIFIED
:DEGREES
2038
root 2.46062 3.51021 -0.359385 303.94 67.1714 57.9108
lowerback -19.0802 4.18935 -4.08434
upperback -4.20926 6.64319 -1.47378
thorax 5.79734 3.29803 2.28794
lowerneck 10.0409 -3.11926 0.770509
upperneck 4.25795 -3.86723 -3.21729
head -0.426375 -1.80487 -0.994773
rshoulderjoint -2.32168 7.06403 -29.2462
rhumerus 362.257 -2.95798 -410.865
rradius 36.4046 -2.95792e-013 -2.2741e-013
rwrist -4.44034e-013 5.35358 3.0747e-014
rhand 4.18705 -4.22802 36.6243
lshoulderjoint -1.47485 -4.21213 30.3175
lhumerus 346.67 30.3975 409.415
lradius 16.3848 -5.47055e-013 -1.84671e-013
lwrist 3.00911e-013 -9.02822 6.4409e-015
lhand 12.9022 7.75949 -26.5405
rfemur -8.71793 31.2112 13.4003
rtibia 23.0457 -2.8625e-014 4.77083e-015
rfoot -160.538 -33.8324 150.945
rtoes 7.95139e-015 -8.46823e-014 1.01778e-013
lfemur -45.8222 4.90266 -14.3529
ltibia 9.09848 3.97569e-015 -2.38542e-015
lfoot -18.6273 13.2939 11.5509
ltoes -1.11319e-013 3.54831e-014 -5.40694e-014
2039
root 2.51932 3.5024 -0.359064 304.472 66.9278 57.5993
lowerback -19.5697 4.18893 -4.47853
upperback -4.21798 6.75652 -1.54125
thorax 6.0035 3.3422 2.50349
lowerneck 10.0484 -3.13988 0.81098
upperneck 4.27904 -3.88968 -3.19771
head -0.421838 -1.81579 -0.99471
rshoulderjoint -2.31498 7.05506 -29.2184
rhumerus 361.83 -2.95237 -410.993
rradius 36.3189 -9.54166e-015 -3.81667e-014
rwrist 9.74325e-013 5.35733 -1.49743e-013
rhand 4.21992 -4.21795 36.6099
lshoulderjoint -1.42548 -4.08318 30.2635
lhumerus 346.743 30.9804 409.326
lradius 16.2589 -4.13472e-014 2.1747e-013
lwrist 4.34919e-013 -9.24002 5.15579e-013
lhand 13.0188 8.03035 -26.6718
rfemur -7.99713 31.4188 13.4131
rtibia 23.3522 4.13472e-014 -6.36111e-015
rfoot -160.875 -33.2355 151.256
rtoes 3.81667e-014 -8.74653e-015 -5.20816e-014
lfemur -46.1756 5.05472 -14.7519
ltibia 10.8753 3.18055e-015 -1.03368e-014
lfoot -17.6398 12.6971 10.9747
ltoes 2.16278e-013 -2.76808e-014 3.18055e-015
2040
root 2.58006 3.49586 -0.358791 304.838 66.6667 57.5118
lowerback -20.1844 4.15106 -4.96292
upperback -4.26995 6.85338 -1.60588
thorax 6.21722 3.37776 2.77799
lowerneck 10.1277 -3.17859 0.925159
upperneck 4.32343 -3.92485 -3.26883
head -0.426341 -1.82941 -1.0343
rshoulderjoint -2.30631 7.04712 -29.1737
rhumerus 361.277 -2.96166 -411.086
rradius 36.1499 4.29375e-014 1.36764e-013
rwrist -1.24585e-013 5.35355 1.86878e-013
rhand 4.31158 -4.20762 36.5232
lshoulderjoint -1.38977 -3.98822 30.2297
lhumerus 346.772 30.9522 409.307
lradius 16.1132 3.18055e-014 1.6022e-013
lwrist -3.37716e-013 -9.62253 2.33881e-013
lhand 12.7823 8.88795 -27.0051
rfemur -7.29108 31.4791 13.3364
rtibia 23.5397 -3.18055e-015 1.59028e-015
rfoot -161.48 -32.684 151.726
rtoes 1.08139e-013 2.27807e-013 -2.28602e-014
lfemur -46.5477 5.13735 -15.2283
ltibia 12.5477 1.82882e-014 -7.95139e-015
lfoot -16.9699 11.3043 10.7174
ltoes -2.38542e-013 7.58364e-014 1.94014e-013
2041
root 2.64205 3.49094 -0.358412 305.109 66.3846 57.5334
lowerback -20.8444 4.0897 -5.48749
upperback -4.39313 6.93827 -1.66161
thorax 6.3697 3.41154 3.08225
lowerneck 10.3796 -3.23377 1.04072
upperneck 4.34243 -3.97888 -3.32114
head -0.467517 -1.84972 -1.06533
rshoulderjoint -2.2982 7.03403 -29.1452
rhumerus 360.583 -2.80885 -411.149
rradius 35.872 -1.97194e-013 -1.30403e-013
rwrist 4.08911e-013 5.37797 -2.55569e-014
rhand 4.37578 -4.37199 36.4118
lshoulderjoint -1.36495 -3.92976 30.1713
lhumerus 346.607 32.14 409.079
lradius 15.9604 -3.49861e-014 -1.58332e-013
lwrist 4.83153e-013 -9.80946 -2.01734e-013
lhand 13.2191 8.41761 -27.0861
rfemur -6.61937 31.5567 13.2198
rtibia 23.68 0 -2.06736e-014
rfoot -162.358 -32.1629 152.296
rtoes 5.40694e-014 -3.05731e-013 3.85642e-014
lfemur -46.9525 5.2021 -15.7013
ltibia 14.0952 -2.3059e-014 0
lfoot -16.5722 10.7425 10.4048
ltoes 4.58e-013 -1.47001e-013 -1.51076e-013
2042
root 2.70524 3.48742 -0.357948 305.078 66.0604 57.8449
lowerback -21.6357 3.99234 -5.99254
upperback -4.56775 6.99168 -1.72561
thorax 6.53757 3.43207 3.36962
lowerneck 10.7008 -3.27182 1.14381
upperneck 4.38642 -4.00782 -3.32639
head -0.510286 -1.85693 -1.0797
rshoulderjoint -2.24828 6.92153 -29.0447
rhumerus 359.851 -2.81205 -411.198
rradius 35.4859 6.83819e-014 2.21049e-013
rwrist -1.01303e-012 5.57461 3.71896e-013
rhand 4.54683 -4.54544 36.1055
lshoulderjoint -1.35768 -3.92274 30.1081
lhumerus 346.45 32.0149 408.957
lradius 15.8394 -1.90833e-014 8.40859e-014
lwrist -5.93247e-013 -9.77993 5.64805e-014
lhand 13.0848 8.85441 -27.4172
rfemur -6.0886 31.6243 13.0711
rtibia 23.8324 1.43125e-014 1.11319e-014
rfoot -163.485 -31.6305 152.887
rtoes -2.8625e-014 2.5683e-013 -3.93594e-014
lfemur -47.4335 5.17661 -16.1551
ltibia 15.5296 1.51076e-014 1.11319e-014
lfoot -15.8455 11.4391 10.2032
ltoes -1.49486e-013 3.926e-014 1.54257e-013
2043
root 2.76879 3.4857 -0.357325 304.936 65.7739 58.2828
lowerback -22.3826 3.85187 -6.54017
upperback -4.80333 7.00371 -1.7824
thorax 6.60926 3.43948 3.67038
lowerneck 11.0827 -3.33301 1.30865
upperneck 4.54371 -4.0506 -3.41366
head -0.531365 -1.86692 -1.12981
rshoulderjoint -2.18912 6.77366 -28.9572
rhumerus 359.012 -2.91688 -411.293
rradius 34.9949 -7.15625e-014 1.00187e-013
rwrist -6.07438e-013 5.82105 3.06916e-013
rhand 4.82843 -4.69733 35.7294
lshoulderjoint -1.36119 -3.94444 30.0563
lhumerus 346.061 32.9712 408.658
lradius 15.7678 -8.5875e-014 -1.81391e-014
lwrist -2.84304e-013 -10.1104 -4.0384e-014
lhand 13.29 8.59449 -27.5141
rfemur -5.6014 31.6249 12.8919
rtibia 24.0561 -2.8625e-014 -2.38542e-014
rfoot -164.826 -31.1192 153.663
rtoes 1.33583e-013 -1.90833e-013 1.72943e-014
lfemur -47.7542 5.1021 -16.5906
ltibia 16.7761 -1.19271e-014 3.18055e-015
lfoot -14.0958 12.6614 9.85076
ltoes 1.08139e-013 -1.38155e-013 -1.08139e-013
2044
root 2.8328 3.4863 -0.356288 304.761 65.5385 58.8338
lowerback -23.0948 3.66643 -7.17908
upperback -5.04702 6.98778 -1.86388
thorax 6.64544 3.43555 3.98381
lowerneck 11.3158 -3.39806 1.4493
upperneck 4.94236 -4.0899 -3.45583
head -0.448741 -1.87687 -1.16504
rshoulderjoint -2.10347 6.56737 -28.8038
rhumerus 358.19 -2.88615 -411.389
rradius 34.3984 -9.54166e-015 5.24792e-014
rwrist -3.51822e-013 6.05294 1.23538e-013
rhand 5.0797 -4.88764 35.4864
lshoulderjoint -1.36643 -3.97338 29.9954
lhumerus 345.773 32.6455 408.509
lradius 15.7188 -2.8625e-014 -1.23259e-013
lwrist 1.71796e-013 -10.0392 -1.88956e-013
lhand 13.0511 8.9895 -27.8572
rfemur -5.25548 31.2702 12.6068
rtibia 24.4704 -1.59028e-014 -4.77083e-015
rfoot -166.162 -30.6849 154.829
rtoes 6.36111e-014 -7.55382e-014 7.03698e-014
lfemur -47.8537 4.98743 -17.0547
ltibia 17.7894 -1.59028e-014 -2.38542e-015
lfoot -11.723 14.0432 9.63886
ltoes 8.90555e-014 -2.62893e-014 -1.31993e-013
